<svg xmlns="http://www.w3.org/2000/svg"  viewBox="0 0 30 30" width="64px" height="64px"><path fill="#323232" d="M17.38867,3.3457C16.8877,2.50293,15.99463,2,15,2s-1.88721,0.50293-2.38818,1.3457L0.37939,23.91797	c-0.49854,0.83789-0.5083,1.84375-0.02637,2.69043C0.84863,27.47949,1.75146,28,2.76807,28h24.46436	c1.0166,0,1.91895-0.52051,2.41406-1.3916c0.48242-0.84668,0.47168-1.85352-0.02637-2.69043L17.38867,3.3457z M27.9082,25.61914	C27.77344,25.85742,27.52051,26,27.23242,26H2.76807c-0.41553,0-0.61182-0.26563-0.67676-0.38086	c-0.07227-0.12695-0.16797-0.38477,0.00684-0.67969L14.33057,4.36768C14.52832,4.03564,14.86475,4,15,4	c0.13574,0,0.47217,0.03564,0.66992,0.36816l12.23145,20.57227C28.07617,25.23438,27.98047,25.49219,27.9082,25.61914z"/><rect width="2" height="9" x="14" y="10" fill="#323232"/><rect width="2" height="2" x="14" y="21" fill="#323232"/></svg>