<svg fill="#000000" xmlns="http://www.w3.org/2000/svg"  viewBox="0 0 64 64" width="64px" height="64px"><path d="M 32 4.0214844 C 31.69425 4.0214844 31.387719 4.1483906 31.199219 4.4003906 L 28.199219 8.4003906 C 27.971219 8.7033906 27.936469 9.1082656 28.105469 9.4472656 C 28.274469 9.7862656 28.621 10 29 10 L 31 10 L 31 18 L 33 18 L 33 10 L 35 10 C 35.379 10 35.724531 9.7862656 35.894531 9.4472656 C 36.064531 9.1082656 36.027781 8.7033906 35.800781 8.4003906 L 32.800781 4.4003906 C 32.612281 4.1483906 32.30575 4.0214844 32 4.0214844 z M 32 6.6679688 L 33 8 L 31 8 L 32 6.6679688 z M 16.814453 7.3671875 C 14.204453 7.9181875 11.797516 9.2292031 9.8535156 11.158203 C 7.9005156 13.096203 6.5754844 15.508812 6.0214844 18.132812 L 7.9785156 18.544922 C 8.4515156 16.303922 9.5867187 14.240125 11.261719 12.578125 C 12.931719 10.921125 14.993562 9.7952187 17.226562 9.3242188 L 16.814453 7.3671875 z M 46.1875 7.3671875 L 45.773438 9.3242188 C 48.005437 9.7952188 50.068281 10.921125 51.738281 12.578125 C 53.413281 14.240125 54.548484 16.303922 55.021484 18.544922 L 56.978516 18.132812 C 56.425516 15.508812 55.101438 13.097203 53.148438 11.158203 C 51.204437 9.2292031 48.7975 7.9181875 46.1875 7.3671875 z M 17.693359 11.349609 C 15.821359 11.682609 14.086781 12.596187 12.675781 13.992188 C 11.283781 15.368187 10.355187 17.099047 9.9921875 18.998047 L 11.957031 19.373047 C 12.244031 17.874047 12.978031 16.505063 14.082031 15.414062 C 15.204031 14.305063 16.574922 13.580359 18.044922 13.318359 L 17.693359 11.349609 z M 45.306641 11.351562 L 44.957031 13.320312 C 46.427031 13.582313 47.797922 14.306016 48.919922 15.416016 C 50.022922 16.507016 50.757922 17.876 51.044922 19.375 L 53.009766 19 C 52.646766 17.102 51.718172 15.370141 50.326172 13.994141 C 48.914172 12.597141 47.177641 11.683563 45.306641 11.351562 z M 18.439453 15.162109 C 17.326453 15.440109 16.307188 16.017031 15.492188 16.832031 C 14.681188 17.643031 14.101406 18.650047 13.816406 19.748047 L 15.753906 20.251953 C 15.949906 19.498953 16.34825 18.805094 16.90625 18.246094 C 17.46425 17.688094 18.161828 17.293562 18.923828 17.101562 L 18.439453 15.162109 z M 44.560547 15.162109 L 44.076172 17.101562 C 44.838172 17.292562 45.53575 17.688094 46.09375 18.246094 C 46.65175 18.805094 47.050094 19.498953 47.246094 20.251953 L 49.183594 19.748047 C 48.898594 18.650047 48.318813 17.643031 47.507812 16.832031 C 46.693812 16.018031 45.674547 15.440109 44.560547 15.162109 z M 23 20 C 21.897 20 21 20.897 21 22 L 21 58 C 21 59.103 21.897 60 23 60 L 41 60 C 42.103 60 43 59.103 43 58 L 43 22 C 43 20.897 42.103 20 41 20 L 23 20 z M 23 22 L 41 22 L 41 52 L 23 52 L 23 22 z M 32 31 C 28.691 31 26 33.691 26 37 C 26 40.309 28.691 43 32 43 C 35.309 43 38 40.309 38 37 C 38 33.691 35.309 31 32 31 z M 10.910156 33.003906 C 10.728656 33.020156 10.551891 33.084719 10.400391 33.199219 L 6.4003906 36.199219 C 6.1483906 36.388219 6 36.686 6 37 C 6 37.314 6.1483906 37.611781 6.4003906 37.800781 L 10.400391 40.800781 C 10.577391 40.933781 10.788 41 11 41 C 11.152 41 11.306266 40.964531 11.447266 40.894531 C 11.786266 40.724531 12 40.379 12 40 L 12 38 L 18 38 L 18 36 L 12 36 L 12 34 C 12 33.621 11.786266 33.275469 11.447266 33.105469 C 11.277766 33.020969 11.091656 32.987656 10.910156 33.003906 z M 53.089844 33.003906 C 52.908344 32.987656 52.721734 33.020969 52.552734 33.105469 C 52.213734 33.275469 52 33.621 52 34 L 52 36 L 45 36 L 45 38 L 52 38 L 52 40 C 52 40.379 52.213734 40.724531 52.552734 40.894531 C 52.693734 40.964531 52.848 41 53 41 C 53.212 41 53.422609 40.933781 53.599609 40.800781 L 57.599609 37.800781 C 57.851609 37.612781 58 37.315 58 37 C 58 36.685 57.851609 36.388219 57.599609 36.199219 L 53.599609 33.199219 C 53.447609 33.084719 53.271344 33.020156 53.089844 33.003906 z M 31 33.142578 L 31 36 L 28.142578 36 C 28.506578 34.601 29.601 33.506578 31 33.142578 z M 33 33.142578 C 34.399 33.506578 35.493422 34.601 35.857422 36 L 33 36 L 33 33.142578 z M 10 36 L 10 38 L 8.6679688 37 L 10 36 z M 54 36 L 55.332031 37 L 54 38 L 54 36 z M 28.142578 38 L 31 38 L 31 40.857422 C 29.601 40.493422 28.506578 39.399 28.142578 38 z M 33 38 L 35.857422 38 C 35.493422 39.399 34.399 40.493422 33 40.857422 L 33 38 z M 23 54 L 41 54 L 41 58 L 23 58 L 23 54 z M 32 55 C 31.448 55 31 55.448 31 56 C 31 56.552 31.448 57 32 57 C 32.552 57 33 56.552 33 56 C 33 55.448 32.552 55 32 55 z"/></svg>