<svg fill="#000000" xmlns="http://www.w3.org/2000/svg"  viewBox="0 0 50 50" width="50px" height="50px"><path d="M 9 4 C 6.2504839 4 4 6.2504839 4 9 L 4 10.832031 A 1.0001 1.0001 0 0 0 4 11.158203 L 4 44 A 1.0001 1.0001 0 0 0 5 45 L 20.585938 45 L 24.292969 48.707031 A 1.0001 1.0001 0 0 0 25.707031 48.707031 L 29.414062 45 L 45 45 A 1.0001 1.0001 0 0 0 46 44 L 46 11.167969 A 1.0001 1.0001 0 0 0 46 10.841797 L 46 9 C 46 6.2504839 43.749516 4 41 4 L 9 4 z M 9 6 L 41 6 C 42.668484 6 44 7.3315161 44 9 L 44 10 L 6 10 L 6 9 C 6 7.3315161 7.3315161 6 9 6 z M 6 12 L 44 12 L 44 43 L 29 43 A 1.0001 1.0001 0 0 0 28.292969 43.292969 L 25 46.585938 L 21.707031 43.292969 A 1.0001 1.0001 0 0 0 21 43 L 6 43 L 6 12 z M 12 17 A 1.0001 1.0001 0 1 0 12 19 L 15 19 A 1.0001 1.0001 0 1 0 15 17 L 12 17 z M 19 17 A 1.0001 1.0001 0 1 0 19 19 L 38 19 A 1.0001 1.0001 0 1 0 38 17 L 19 17 z M 12 23 A 1.0001 1.0001 0 1 0 12 25 L 15 25 A 1.0001 1.0001 0 1 0 15 23 L 12 23 z M 19 23 A 1.0001 1.0001 0 1 0 19 25 L 38 25 A 1.0001 1.0001 0 1 0 38 23 L 19 23 z M 12 29 A 1.0001 1.0001 0 1 0 12 31 L 15 31 A 1.0001 1.0001 0 1 0 15 29 L 12 29 z M 19 29 A 1.0001 1.0001 0 1 0 19 31 L 38 31 A 1.0001 1.0001 0 1 0 38 29 L 19 29 z M 12 35 A 1.0001 1.0001 0 1 0 12 37 L 15 37 A 1.0001 1.0001 0 1 0 15 35 L 12 35 z M 19 35 A 1.0001 1.0001 0 1 0 19 37 L 38 37 A 1.0001 1.0001 0 1 0 38 35 L 19 35 z"/></svg>