<svg fill="#000000" xmlns="http://www.w3.org/2000/svg"  viewBox="0 0 512 512" width="64px" height="64px"><path d="M 149 15.3125 C 121.981 15.3125 100 37.2935 100 64.3125 L 100 445.6875 C 100 472.7065 121.981 494.6875 149 494.6875 L 371 494.6875 C 398.019 494.6875 420 472.7065 420 445.6875 L 420 64.3125 C 420 37.2935 398.019 15.3125 371 15.3125 L 149 15.3125 z M 149 35.3125 L 371 35.3125 C 386.99 35.3125 400 48.3225 400 64.3125 L 400 445.6875 C 400 461.6775 386.99 474.6875 371 474.6875 L 149 474.6875 C 133.009 474.6875 120 461.6775 120 445.6875 L 120 64.3125 C 120 48.3225 133.009 35.3125 149 35.3125 z M 230 50 C 224.477 50 220 54.478 220 60 C 220 65.522 224.477 70 230 70 L 282.5 70 C 288.022 70 292.5 65.522 292.5 60 C 292.5 54.478 288.022 50 282.5 50 L 230 50 z M 147.5 90.3125 C 141.977 90.3125 137.5 94.7905 137.5 100.3125 L 137.5 409.6875 C 137.5 415.2095 141.977 419.6875 147.5 419.6875 L 372.5 419.6875 C 378.022 419.6875 382.5 415.2095 382.5 409.6875 L 382.5 100.3125 C 382.5 94.7895 378.022 90.3125 372.5 90.3125 L 147.5 90.3125 z M 157.5 110.3125 L 362.5 110.3125 L 362.5 399.6875 L 157.5 399.6875 L 157.5 110.3125 z M 260 428.4375 A 18.75 18.75 0 0 0 260 465.9375 A 18.75 18.75 0 0 0 260 428.4375 z"/></svg>