<svg fill="#000000" xmlns="http://www.w3.org/2000/svg"  viewBox="0 0 24 24" width="24px" height="24px"><path d="M 14.5 4 C 12 4 10 6 10 8.5 C 10 14.101563 7.300781 15.800781 3 15 C 3 15 5.464844 18.53125 10.46875 18.96875 C 10.183594 19.296875 10.0625 19.625 10.0625 19.625 L 11.9375 20.375 C 11.9375 20.375 11.898438 20.390625 12.03125 20.28125 C 12.164063 20.171875 12.410156 20 13 20 C 14.183594 20 15.40625 20.8125 15.40625 20.8125 L 16.59375 19.1875 C 16.59375 19.1875 15.765625 18.59375 14.5625 18.25 C 17.082031 16.886719 18.773438 13.734375 18.96875 9.34375 L 21 8 L 18.6875 6.90625 C 18.042969 5.210938 16.429688 4 14.5 4 Z M 16 7 C 16.601563 7 17 7.398438 17 8 C 17 8.601563 16.601563 9 16 9 C 15.398438 9 15 8.601563 15 8 C 15 7.398438 15.398438 7 16 7 Z"/></svg>