<svg fill="#000000" xmlns="http://www.w3.org/2000/svg"  viewBox="0 0 24 24" width="24px" height="24px"><path d="M 17.53125 2.03125 C 17.363281 2.039063 17.179688 2.046875 17 2.09375 C 15.71875 2.433594 16.535156 5.589844 10 8 C 7.339844 8.980469 7.746094 9.007813 6 9 C 5.726563 9 5.398438 9 5 9 C 4.203125 9 2.03125 9.503906 2.03125 12 C 2.03125 12.691406 2.460938 13.460938 3 14 C 2.46875 14.78125 2 16.042969 2 17 C 2 20.167969 3.542969 22 6 22 C 9.75 22 11.992188 19.453125 13 18 C 13.390625 17.4375 17.480469 16.0625 19 15 C 19.832031 14.414063 20.578125 13.570313 21 13 C 21.589844 12.191406 21.960938 11 22 10 C 22.011719 9.628906 21.800781 8.753906 21 9.84375 C 20.828125 10.078125 20.523438 10.355469 20.15625 10.65625 C 19.792969 10.292969 19.378906 10 19 10 L 19 11.5 C 18.242188 12.007813 17.367188 12.511719 16.4375 13 C 16.03125 12.488281 15.496094 12 15 12 L 15 13.71875 C 14.019531 14.167969 13.074219 14.523438 12.25 14.75 C 11.871094 14.339844 11.414063 14 11 14 L 11 15 C 10.859375 15.011719 10.703125 15.019531 10.53125 15.03125 C 9.609375 15.082031 8.28125 15.152344 7.03125 15.34375 L 8.375 14 C 8.5625 13.8125 8.789063 13.558594 8.90625 13.4375 C 9.25 13.761719 9.648438 14 10 14 L 10 12.375 C 10.3125 12.097656 10.882813 11.679688 11.65625 11.125 C 12.054688 11.589844 12.542969 12 13 12 L 13 10.1875 C 13.535156 9.8125 14.019531 9.464844 14.59375 9.0625 C 14.996094 9.554688 15.523438 10 16 10 L 16 8.0625 C 16.523438 7.691406 17.058594 7.3125 17.53125 6.96875 C 17.9375 7.492188 18.492188 8 19 8 L 19 6 C 19 5.953125 18.976563 5.917969 18.96875 5.875 C 19.40625 5.53125 19.773438 5.226563 20 5 C 21.238281 3.761719 20.71875 3.492188 20 3 C 19.53125 2.679688 18.863281 2.144531 18 2.03125 C 17.847656 2.011719 17.699219 2.023438 17.53125 2.03125 Z M 17.71875 3 C 17.804688 2.988281 17.894531 2.984375 18 3 C 18.507813 3.082031 19 3.625 19 4 C 19 4.292969 17 4.613281 17 4 C 17 3.792969 17.128906 3.085938 17.71875 3 Z M 5.5 10.6875 C 6.152344 10.699219 6.808594 10.808594 7 11 C 7.628906 11.628906 7.570313 12.238281 7.03125 12.5 C 6.09375 11.433594 5.148438 11.851563 5 12 C 5.269531 12.28125 5.589844 12.578125 6 13 C 5.765625 13.082031 5.492188 13.300781 5 13.09375 C 4.777344 13 4.0625 12.394531 4 12.3125 C 3.753906 11.988281 3.574219 11.414063 4 11 C 4.199219 10.769531 4.847656 10.675781 5.5 10.6875 Z"/></svg>