<svg fill="#000000" xmlns="http://www.w3.org/2000/svg"  viewBox="0 0 24 24" width="24px" height="24px"><path d="M12 19.03l3.09.77c-.06.07-.1.14-.16.21C14.68 20.19 13.5 21 12 21s-2.68-.81-2.93-.99c-.06-.07-.1-.14-.16-.21L12 19.03zM19 9c0 0 1 2.23 1 5l-1.91 1.91c-.23-1.88-1.1-3.66-2.09-4.91.26-.1 2-2 2-2h-4v2.41l.28.29c.16.16 2.49 3.29 1.74 6.28L13 17.22V16.2c.51-.39 1-.85 1-.85v-.68c0-.49-1-.67-2-.67s-2 .18-2 .67v.68c0 0 .49.46 1 .85v1.02l-3.02.76c-.75-2.99 1.58-6.12 1.74-6.28L10 11.41V9H6c0 0 1.74 1.9 2 2-.99 1.25-1.86 3.03-2.09 4.91L4 14c0-2.77 1-5 1-5S2.03 7.79 3.36 5c.97-2.04 2.8-.22 2.8-.22S8.54 3 12 3s5.84 1.78 5.84 1.78 1.83-1.82 2.8.22C21.97 7.79 19 9 19 9z"/></svg>