<svg fill="#000000" xmlns="http://www.w3.org/2000/svg"  viewBox="0 0 24 24" width="24px" height="24px"><path d="M 6.8027344 2.0195312 C 6.8027344 2.0195312 6.1518686 2.1437582 5.484375 2.5449219 C 4.8168814 2.9460855 4 3.7842891 4 5 L 4 5.5351562 L 4.4453125 5.8320312 C 4.4453125 5.8320312 4.5489778 5.9041562 4.7050781 6 L 2.0117188 6 A 1.0001 1.0001 0 0 0 1.015625 6.9082031 C 1.015625 6.9082031 0.88890554 8.0855299 1.3300781 9.3339844 C 1.5506644 9.9582116 1.9286497 10.633205 2.5761719 11.154297 C 2.9779992 11.477666 3.4874319 11.714047 4.0664062 11.855469 C 4.0330428 12.22661 4 12.598086 4 13 L 4 13.720703 L 4.6796875 13.949219 C 5.6196875 14.259219 7 16.310078 7 18.580078 C 7.1 19.760078 8.27 22 12 22 C 15.73 22 16.9 19.76 17 18.5 C 17 16.31 18.380312 14.259219 19.320312 13.949219 L 20 13.720703 L 20 13 C 20 12.598086 19.966957 12.22661 19.933594 11.855469 C 20.512568 11.714047 21.022001 11.477666 21.423828 11.154297 C 22.07135 10.633205 22.449336 9.9582116 22.669922 9.3339844 C 23.111094 8.0855299 22.984375 6.9082031 22.984375 6.9082031 A 1.0001 1.0001 0 0 0 21.988281 6 L 19.294922 6 C 19.451022 5.9041562 19.554687 5.8320312 19.554688 5.8320312 L 20 5.5351562 L 20 5 C 20 3.7842891 19.183119 2.9460855 18.515625 2.5449219 C 17.848131 2.1437582 17.197266 2.0195312 17.197266 2.0195312 L 16.802734 3.9804688 C 16.802734 3.9804688 17.151869 4.0579758 17.484375 4.2578125 C 17.614951 4.3362885 17.605136 4.4666493 17.6875 4.5488281 C 17.272826 4.7366977 16.768991 4.9183625 16.279297 4.9746094 C 14.282943 3.4375789 12.220786 3.0246686 12.179688 3.0195312 L 12 2.9804688 L 11.820312 3.0195312 C 11.779214 3.0246686 9.7170572 3.4375789 7.7207031 4.9746094 C 7.2310086 4.9183625 6.7271735 4.7366977 6.3125 4.5488281 C 6.3948641 4.4666493 6.385049 4.3362887 6.515625 4.2578125 C 6.8481314 4.0579762 7.1972656 3.9804688 7.1972656 3.9804688 L 6.8027344 2.0195312 z M 6 6.6230469 C 6.0141831 6.6282294 6.0286414 6.6315879 6.0429688 6.6367188 C 6.0285581 6.6550487 6.0143206 6.6728989 6 6.6914062 L 6 6.6230469 z M 18 6.6230469 L 18 6.6914062 C 17.985679 6.6728989 17.971442 6.6550487 17.957031 6.6367188 C 17.971359 6.6315879 17.985817 6.6282294 18 6.6230469 z M 3.1289062 8 L 5.1542969 8 C 4.8555636 8.5663611 4.6052388 9.1986223 4.4121094 9.8945312 C 4.1685881 9.8213617 3.9823359 9.7182323 3.8300781 9.5957031 C 3.5456316 9.3667953 3.3495856 9.0417884 3.2167969 8.6660156 C 3.1044488 8.3480868 3.154648 8.2760776 3.1289062 8 z M 18.845703 8 L 20.871094 8 C 20.845354 8.2760776 20.895553 8.3480868 20.783203 8.6660156 C 20.650413 9.0417884 20.454368 9.3667953 20.169922 9.5957031 C 20.017664 9.7182323 19.831412 9.8213617 19.587891 9.8945312 C 19.394761 9.1986223 19.144436 8.5663611 18.845703 8 z M 10 11 C 10.55 11 11 11.45 11 12 C 11 12.55 10.55 13 10 13 C 9.45 13 9 12.55 9 12 C 9 11.45 9.45 11 10 11 z M 14 11 C 14.55 11 15 11.45 15 12 C 15 12.55 14.55 13 14 13 C 13.45 13 13 12.55 13 12 C 13 11.45 13.45 11 14 11 z M 12 16.5 C 12.39 16.5 14.329766 16.6 15.009766 18.25 C 15.009766 18.31 15 18.359922 15 18.419922 C 15 18.429922 14.84 20 12 20 C 9.42 20 9.05 18.699688 9 18.429688 C 9 18.369688 8.9902344 18.31 8.9902344 18.25 C 9.6702344 16.6 11.61 16.5 12 16.5 z"/></svg>