<svg fill="#000000" xmlns="http://www.w3.org/2000/svg"  viewBox="0 0 24 24" width="24px" height="24px"><path d="M 2 2 C 2.929688 5.910156 5.730469 8.578125 9.09375 9.5625 C 8.605469 9.792969 8.175781 10.085938 7.84375 10.46875 C 7.144531 9.332031 5.917969 8 4 8 L 2 8 L 3 10 C 3.457031 11.101563 4.898438 12 6 12 L 7 12 C 6.753906 12.714844 6.796875 13.292969 7 14 C 7.394531 15.382813 9.28125 17.8125 10 21 C 10 21 10.40625 22 12 22 C 13.59375 22 14 21 14 21 C 14.71875 17.8125 16.480469 15.421875 17 14 C 17.152344 13.578125 17.28125 12.65625 17 12 L 18 12 C 19.101563 12 20.542969 11.101563 21 10 L 22 8 L 20 8 C 18.046875 8 16.820313 9.382813 16.125 10.53125 C 15.785156 10.132813 15.367188 9.808594 14.875 9.5625 C 18.203125 8.582031 20.925781 5.917969 22 2 L 20 2 C 19.53125 3.09375 18.78125 4.175781 17.875 5.125 C 17.945313 4.761719 18 4.382813 18 4 L 18 3 L 16 3 L 16 4 C 16 6.207031 14.207031 8 12 8 C 9.792969 8 8 6.207031 8 4 L 8 3 L 6 3 L 6 4 C 6 4.414063 6.046875 4.828125 6.125 5.21875 C 5.171875 4.25 4.414063 3.132813 4 2 Z M 9 12 C 9.550781 12 10 12.449219 10 13 C 10 13.550781 9.550781 14 9 14 C 8.449219 14 8 13.550781 8 13 C 8 12.449219 8.449219 12 9 12 Z M 15 12 C 15.550781 12 16 12.449219 16 13 C 16 13.550781 15.550781 14 15 14 C 14.449219 14 14 13.550781 14 13 C 14 12.449219 14.449219 12 15 12 Z M 12 18 C 12.628906 18 13.519531 18.40625 13.21875 19 C 13.136719 19.164063 12.648438 19.898438 12.5 20 C 12.125 20.257813 11.847656 20.261719 11.5 20 C 11.253906 19.8125 10.945313 19.328125 10.78125 19 C 10.585938 18.609375 11.046875 18 12 18 Z"/></svg>