<svg fill="#000000" xmlns="http://www.w3.org/2000/svg"  viewBox="0 0 24 24" width="24px" height="24px"><path d="M 5.4375 2 C 4.925781 2 4.417969 2.203125 4.03125 2.59375 L 2.59375 4.03125 C 1.816406 4.808594 1.816406 6.066406 2.59375 6.84375 L 4.71875 8.96875 C 3.976563 10.460938 3.207031 12.015625 3 12.375 C 2.53125 13.1875 2 13.992188 2 15 C 2 16.472656 2.804688 17.746094 4 18.4375 C 4.183594 18.542969 8.1875 21.34375 8.1875 21.34375 L 8.21875 21.34375 C 8.894531 21.75 9.660156 22 10.5 22 L 13.5 22 C 14.332031 22 15.113281 21.777344 15.78125 21.375 C 16.160156 21.148438 19.8125 18.710938 21 17.625 C 21.6875 16.992188 22 16.003906 22 15 C 22 13.996094 21.585938 13.246094 21 12.375 C 20.722656 11.945313 19.976563 10.414063 19.28125 8.96875 L 21.40625 6.84375 C 22.183594 6.066406 22.183594 4.808594 21.40625 4.03125 L 19.96875 2.59375 C 19.191406 1.816406 17.933594 1.816406 17.15625 2.59375 L 15.65625 4.09375 C 15.453125 4.03125 15.234375 4 15 4 L 9 4 C 8.769531 4 8.558594 4.042969 8.34375 4.09375 L 6.84375 2.59375 C 6.453125 2.203125 5.949219 2 5.4375 2 Z M 9.5 10 C 10.328125 10 11 10.671875 11 11.5 C 11 12.328125 10.328125 13 9.5 13 C 8.671875 13 8 12.328125 8 11.5 C 8 10.671875 8.671875 10 9.5 10 Z M 14.5 10 C 15.328125 10 16 10.671875 16 11.5 C 16 12.328125 15.328125 13 14.5 13 C 13.671875 13 13 12.328125 13 11.5 C 13 10.671875 13.671875 10 14.5 10 Z M 12 13.8125 C 12.394531 13.8125 12.789063 13.867188 13 14 C 13.949219 14.589844 16 16.882813 16 18 C 16 18.558594 14.671875 19.78125 14 20 C 13.046875 20.308594 10.953125 20.308594 10 20 C 9.328125 19.78125 8 18.558594 8 18 C 8 16.882813 10.050781 14.589844 11 14 C 11.210938 13.867188 11.605469 13.8125 12 13.8125 Z M 11 17 C 10.636719 17 10.429688 17.429688 10.6875 17.6875 L 11.71875 18.90625 C 11.878906 19.066406 12.121094 19.066406 12.28125 18.90625 L 13.3125 17.6875 C 13.570313 17.429688 13.363281 17 13 17 Z"/></svg>