<svg fill="#000000" xmlns="http://www.w3.org/2000/svg"  viewBox="0 0 24 24" width="24px" height="24px"><path d="M 21.921875 8.953125 C 21.683594 7.949219 20.027344 6.894531 19 7 C 19.078125 6.625 17.394531 5.339844 17.066406 5.140625 C 15.320313 4.074219 13.144531 3.019531 11 3 C 6.75 2.960938 4.890625 6.171875 4 7.035156 C 3.457031 7.5625 2.628906 8.335938 2 9 C 2.625 9 3.542969 9 4 9 C 3.46875 9.894531 1.796875 11.855469 2 14 C 2.855469 12.855469 3.4375 12.625 4.140625 12.3125 C 2.84375 16.207031 4.625 20 7 21 C 6.71875 19.75 6.6875 17.625 7 17 C 8.203125 19.035156 10.855469 20.480469 12 21 C 12 18.875 11.78125 16.238281 13 14 C 13.789063 12.550781 15.40625 11 17 11 C 18.359375 11 19.140625 11 21 11 C 21.21875 11.296875 21.5 11.5 22 12 C 22 11.28125 22.066406 10.636719 22.046875 10 C 22.035156 9.652344 22.003906 9.308594 21.921875 8.953125 Z M 14.625 8.101563 C 13.769531 8.101563 13.15625 7.5625 13 7 C 12.785156 6.761719 12.167969 6.335938 12 6 C 12.429688 6.40625 15.625 7 16 7 C 16 7.53125 15.78125 8.101563 14.625 8.101563 Z"/></svg>