<svg fill="#000000" xmlns="http://www.w3.org/2000/svg"  viewBox="0 0 24 24" width="24px" height="24px"><path d="M 12 2 C 10.371094 2 9.167969 2.433594 8.28125 3 L 4 3 C 4 3 4.003906 5.605469 6.433594 5.957031 C 5.566406 6.691406 5 7.777344 5 9 C 5 10.179688 5.523438 11.230469 6.335938 11.964844 C 6.183594 12.097656 6.019531 12.246094 5.851563 12.417969 C 5.847656 12.421875 5.839844 12.429688 5.832031 12.4375 C 5.695313 12.574219 5.558594 12.726563 5.421875 12.886719 L 5.421875 12.890625 C 4.234375 14.261719 3 16.519531 3 20 L 3 22 L 5 22 L 5 20 C 5 19.585938 5.027344 19.199219 5.0625 18.828125 C 5.074219 18.722656 5.089844 18.617188 5.101563 18.515625 C 5.140625 18.230469 5.1875 17.953125 5.242188 17.691406 C 5.261719 17.621094 5.273438 17.546875 5.289063 17.476563 C 5.363281 17.164063 5.457031 16.871094 5.554688 16.59375 C 5.582031 16.523438 5.609375 16.457031 5.632813 16.386719 C 5.714844 16.175781 5.804688 15.972656 5.894531 15.78125 C 5.925781 15.714844 5.960938 15.648438 5.992188 15.582031 C 6.113281 15.351563 6.238281 15.132813 6.367188 14.933594 C 6.375 14.925781 6.378906 14.917969 6.386719 14.90625 C 6.515625 14.710938 6.644531 14.535156 6.777344 14.371094 C 6.804688 14.335938 6.835938 14.300781 6.867188 14.265625 C 6.996094 14.109375 7.125 13.960938 7.25 13.835938 L 7.257813 13.828125 C 7.398438 13.6875 7.535156 13.558594 7.664063 13.453125 C 7.984375 13.175781 8.246094 13.007813 8.375 12.9375 C 8.578125 12.96875 8.785156 13 9 13 C 9.738281 13 10.425781 12.785156 11.019531 12.433594 L 12 13.414063 L 12.980469 12.433594 C 13.574219 12.785156 14.261719 13 15 13 C 15.214844 13 15.421875 12.96875 15.625 12.9375 C 16.113281 13.21875 19 15.101563 19 20 L 19 22 L 21 22 L 21 20 C 21 15.585938 19.015625 13.125 17.664063 11.964844 C 18.476563 11.230469 19 10.179688 19 9 C 19 7.777344 18.433594 6.691406 17.566406 5.957031 C 19.996094 5.605469 20 3 20 3 L 15.71875 3 C 14.832031 2.433594 13.628906 2 12 2 Z M 12 4 C 13.476563 4 14.433594 4.484375 15.050781 5.007813 C 15.035156 5.007813 15.019531 5 15 5 C 13.800781 5 12.734375 5.542969 12 6.382813 C 11.265625 5.542969 10.199219 5 9 5 C 8.972656 5 8.949219 5.007813 8.925781 5.007813 C 9.542969 4.484375 10.511719 4 12 4 Z M 9 7 C 10.101563 7 11 7.898438 11 9 C 11 10.101563 10.101563 11 9 11 C 7.898438 11 7 10.101563 7 9 C 7 7.898438 7.898438 7 9 7 Z M 15 7 C 16.101563 7 17 7.898438 17 9 C 17 10.101563 16.101563 11 15 11 C 13.898438 11 13 10.101563 13 9 C 13 7.898438 13.898438 7 15 7 Z M 9 8 C 8.449219 8 8 8.449219 8 9 C 8 9.550781 8.449219 10 9 10 C 9.550781 10 10 9.550781 10 9 C 10 8.449219 9.550781 8 9 8 Z M 15 8 C 14.449219 8 14 8.449219 14 9 C 14 9.550781 14.449219 10 15 10 C 15.550781 10 16 9.550781 16 9 C 16 8.449219 15.550781 8 15 8 Z M 9.070313 14.878906 C 8.417969 15.394531 7 16.867188 7 20 L 7 22 L 17 22 L 17 20 C 17 16.867188 15.582031 15.394531 14.929688 14.878906 L 12 18 Z"/></svg>